<svg fill="#1da1f2" height="1em" viewBox="0 0 512 512" width="1em" xmlns="http://www.w3.org/2000/svg"><path d="m512 97.25c-19.04 8.35-39.33 13.9-60.48 16.57 21.76-13 38.37-33.4 46.18-58-20.3 12.08-42.7 20.63-66.56 25.4-19.27-20.52-46.72-33.22-76.68-33.22-58.1 0-104.9 47.17-104.9 105 0 8.3.7 16.3 2.44 23.93-87.26-4.26-164.48-46.08-216.35-109.8-9.06 15.72-14.37 33.7-14.37 53.06 0 36.34 18.72 68.57 46.62 87.22-16.86-.32-33.4-5.2-47.42-12.92v1.15c0 51 36.38 93.37 84.1 103.13-8.55 2.34-17.86 3.46-27.52 3.46-6.72 0-13.5-.38-19.88-1.8 13.6 41.58 52.2 72.14 98.08 73.13-35.7 27.93-81.05 44.77-130.14 44.77-8.6 0-16.86-.4-25.12-1.44 46.5 29.99 101.6 47.11 161.02 47.11 193.16 0 298.76-160 298.76-298.7 0-4.63-.16-9.1-.4-13.56 20.84-14.78 38.35-33.24 52.62-54.5z"/></svg>