<svg enable-background="new 0 0 500 500" viewBox="0 0 500 500" xmlns="http://www.w3.org/2000/svg"><path d="m400 500h-300c-55.2 0-100-44.8-100-100v-300c0-55.2 44.8-100 100-100h300c55.2 0 100 44.8 100 100v300c0 55.2-44.8 100-100 100z" fill="#8dcb04"/><path d="m207-.6c0 .2-.1.4-.1.6h1.3c-.4-.2-.8-.4-1.2-.6z" fill="none"/><path d="m254.6 502.2c.4.4 1 .4 1.3 0l2.2-2.2h-5.8z" fill="none"/><path d="m500 362.6v10.1c2.3-3 2.3-7.2 0-10.1z" fill="none"/><g fill="#70aa00"><path d="m466.5 312.9c-1.6-1.6-4.3-1.6-5.9 0s-1.6 4.3 0 5.9 4.3 1.6 5.9 0 1.6-4.2 0-5.9zm-1.4 4.6c-.9.9-2.3.9-3.2 0s-.9-2.3 0-3.2 2.3-.9 3.2 0 .9 2.3 0 3.2z"/><path d="m452.7 320.7c-1.6 1.6-1.6 4.3 0 5.9s4.3 1.6 5.9 0 1.6-4.3 0-5.9-4.2-1.6-5.9 0zm4.6 4.6c-.9.9-2.3.9-3.2 0s-.9-2.3 0-3.2 2.3-.9 3.2 0 .8 2.3 0 3.2z"/><path d="m444.4 329.1c-1.6 1.6-1.6 4.3 0 5.9s4.3 1.6 5.9 0 1.6-4.3 0-5.9c-1.6-1.7-4.3-1.7-5.9 0zm4.6 4.5c-.9.9-2.3.9-3.2 0s-.9-2.3 0-3.2 2.3-.9 3.2 0c.8.9.8 2.3 0 3.2z"/><path d="m459.4 413.4c-3.3 3.3-8.5 3.3-11.8 0l-19.7-19.7c-3.3-3.3-3.3-8.5 0-11.8l39.9-39.9c3.3-3.3 8.5-3.3 11.8 0l19.7 19.7c.3.3.5.6.7.9v-4.3l-18.3-18.3c-4.4-4.4-11.6-4.4-16 0l-39.9 39.9c-4.4 4.4-4.4 11.6 0 16l19.7 19.7c4.4 4.4 11.6 4.4 16 0l38.5-38.5v-4.3c-.2.3-.5.6-.7.9z"/><path d="m470.4 369.1-22.5 6c-.5.1-.9.5-1 1s0 1 .4 1.4l16.5 16.5c.4.4.9.5 1.4.4.3-.1.5-.2.7-.4s.3-.4.4-.7l6-22.5c.1-.5 0-1-.4-1.4-.5-.2-1-.4-1.5-.3zm-6.5 21.1-12.9-12.9 17.6-4.7z"/><path d="m421.2 356.3-21.5 21.5c-.4.4-.4 1 0 1.4s1 .4 1.4 0l21.5-21.5c.4-.4.4-1 0-1.4s-1-.4-1.4 0z"/><path d="m430.2 489.4c3.1.1 6-1.1 8.1-3.3l.7-.7c1.6-1.9 2.5-4.4 2.6-7 0-2.4-.7-4.7-2.1-6.5-.6-.8-1.3-1.6-2.1-2.2-4.8-3.9-11.6-3.2-15.5 1.5-1 1.2-1.8 2.7-2.2 4.3-.8 3.2-.2 6.6 1.7 9.3.1.1.1.2.2.3 2.1 2.6 5.3 4.2 8.6 4.3zm-7.6-13.2c.3-1.1.9-2.2 1.6-3.1.2-.2.3-.4.5-.6 3-3 7.6-3.3 10.9-.6.6.5 1.1 1 1.5 1.6 1 1.4 1.5 3.1 1.5 4.8 0 1.9-.7 3.7-1.9 5.1-1.6 1.9-4 3-6.5 3-2.5-.1-4.8-1.3-6.3-3.3 0 0-.1-.1-.1-.1l-.1-.1c-1.2-1.8-1.7-4.3-1.1-6.7z"/><path d="m429.7 495.3-.1.3c1.6-.5 3.1-1 4.6-1.6-1.1.2-2.1.4-3.2.4-.6 0-1.1.4-1.3.9z"/><path d="m449.6 436.4-22.3-22.4s0 0 0 0l-24.8-24.8 72.6-72.6 24.9 24.9v-4.2l-10.5-10.5 10.5-10.5v-4.2l-12.6 12.6-11.2-11.2-6.8-6.8c-2.5-2.5-6.5-2.5-9 0l-67.8 67.8c-2.5 2.5-2.5 6.5 0 9l6.8 6.8 24.8 24.8-21.5 21.5c-4.4 4.4-4.4 11.6 0 16l9 9-1.8 1.7c-.6.5-.6 1.3-.2 1.9l3.7 5c-.6 1.3-1.1 2.6-1.4 4-.1.4-.2.8-.2 1.3l-5.9 2.1c-.7.2-1.1 1-.9 1.7l2.2 9.5c.2.7.9 1.2 1.6 1.1l6.2-.7c.5.8 1.1 1.5 1.7 2.1.6.7 1.3 1.3 2 1.9l-1 5.3c1-.2 2.1-.4 3.1-.6l.9-5.1c.1-.6-.1-1.1-.6-1.5-.8-.6-1.6-1.3-2.3-2.1s-1.3-1.6-1.9-2.5c-.3-.5-.8-.7-1.4-.7l-5.8.6-1.6-6.9 5.5-1.9c.5-.2.9-.7 1-1.2.1-.7.2-1.3.3-1.9.3-1.4.8-2.8 1.5-4.1.3-.5.2-1.1-.1-1.6l-3.4-4.7 5.2-4.8 4.4 3.8c.4.4 1 .5 1.6.2 1.9-.8 3.9-1.3 6.1-1.4.6 0 1.1-.4 1.3-.9l2.4-5.3 6.8 2.1-1.1 5.7c-.1.6.1 1.1.6 1.5.4.3.7.5 1.1.9l1.2 1.2c.7.8 1.3 1.6 1.9 2.5.3.5.8.7 1.4.7l5.8-.6 1.6 6.9-5.5 1.9c-.5.2-.9.7-1 1.2-.2 2.1-.8 4.1-1.8 5.9-.3.5-.2 1.1.1 1.6l1 1.4c.9-.5 1.8-.9 2.6-1.4l-.7-1c.8-1.7 1.3-3.4 1.6-5.3l5.9-2.1c.7-.2 1.1-1 .9-1.7l-2.3-9.3c-.2-.7-.9-1.2-1.6-1.1l-6.2.7c-.5-.8-1.1-1.5-1.7-2.1-.5-.5-1-1-1.5-1.4-.2-.2-.4-.3-.6-.5l1.1-6.1c.1-.7-.3-1.5-1-1.7l-9.3-2.9c-.7-.2-1.5.1-1.8.8l-2.5 5.7c-1.8.1-3.6.6-5.4 1.2l-4.7-4c-.6-.5-1.4-.5-2 0l-3.2 3-9-9c-3.3-3.3-3.3-8.5 0-11.8l21.5-21.5 21.3 21.3c2.5 2.5 6.5 2.5 9 0l43.6-43.6v-4.2l-45.5 45.5c-1.3 1.4-3.5 1.4-4.9.1zm-54.9-55c-1.3-1.3-1.3-3.5 0-4.9l67.8-67.8c1.3-1.3 3.5-1.3 4.9 0l5.7 5.7-72.6 72.6z"/><path d="m228.9 0h-20.7c4 1.9 7.8 2.9 11.3 3-.2.1-.5.2-.7.3s-.4.2-.6.3-.5.2-.7.3-.4.2-.6.2c-.3.1-.5.2-.8.3-.2.1-.4.1-.7.2s-.5.2-.8.2c-.2.1-.4.1-.7.2s-.5.1-.8.2c-.2 0-.4.1-.7.1-.3.1-.5.1-.8.1-.2 0-.4.1-.7.1s-.5.1-.8.1c-.2 0-.4.1-.7.1s-.6 0-.8.1c-.2 0-.4 0-.7 0s-.6 0-.9 0c-.2 0-.4 0-.6 0h-.1c0-2 .2-4 .5-5.9h-3c-.3 1.9-.5 3.8-.5 5.7-5.1-.6-10-2.6-14.1-5.7h-4.5c5.4 5.2 12.5 8.3 20 8.8 9 .6 17.7-2.6 24.2-8.7z"/><path d="m45.8 36.7 24.8 24.8-21.5 21.5c-4.4 4.4-4.4 11.6 0 16l9 9-1.8 1.7c-.6.5-.6 1.3-.2 1.9l3.7 5c-.6 1.3-1.1 2.6-1.4 4-.1.4-.2.8-.2 1.3l-5.9 2.1c-.7.2-1.1 1-.9 1.7l2.2 9.5c.2.7.9 1.2 1.6 1.1l6.2-.7c.5.8 1.1 1.5 1.7 2.1.6.7 1.3 1.3 2 1.9l-1.1 6.1c-.1.7.3 1.5 1 1.7l9.3 2.9c.7.2 1.5-.1 1.8-.8l2.5-5.7c1.8-.1 3.6-.6 5.4-1.2l4.7 4.1c.6.5 1.4.5 2 0l7.1-6.6c.5-.5.6-1.3.1-1.9l-3.7-5c.8-1.7 1.3-3.4 1.6-5.3l5.9-2.1c.7-.2 1.1-1 .9-1.7l-2.2-9.5c-.2-.7-.9-1.2-1.6-1.1l-6.2.7c-.5-.8-1.1-1.5-1.7-2.1-.5-.5-1-1-1.5-1.4-.2-.2-.4-.3-.6-.5l1.1-6.1c.1-.7-.3-1.5-1-1.7l-9.3-2.9c-.6-.5-1.3-.1-1.6.5l-2.5 5.7c-1.8.1-3.6.6-5.4 1.2l-4.7-4c-.6-.5-1.4-.5-2 0l-3.2 3-9-9c-3.3-3.3-3.3-8.5 0-11.8l21.5-21.5 21.3 21.3c2.5 2.5 6.5 2.5 9 0l67.8-67.8c2.5-2.5 2.5-6.5 0-9l-8.1-8.1h-4.2l10.2 10.2c1.3 1.3 1.3 3.5 0 4.9l-67.8 67.8c-1.3 1.3-3.5 1.3-4.9 0l-22.3-22.4s0 0 0 0l-24.8-24.8 34.3-34.3c-1.7.3-3.5.6-5.2 1l-32.2 32.2c-.6.6-.6 1.6 0 2.1zm18.6 69.3 4.4 3.8c.4.4 1 .5 1.6.2 1.9-.8 3.9-1.3 6.1-1.4.6 0 1.1-.4 1.3-.9l2.4-5.3 6.8 2.1-1.1 5.7c-.1.6.1 1.1.6 1.5.4.3.7.5 1.1.9l1.2 1.2c.7.8 1.3 1.6 1.9 2.5.3.5.8.7 1.4.7l5.8-.6 1.6 6.9-5.5 1.9c-.5.2-.9.7-1 1.2-.2 2.1-.8 4.1-1.8 5.9-.3.5-.2 1.1.1 1.6l3.4 4.7-5.2 4.8-4.4-3.8c-.4-.4-1-.5-1.6-.2-1.9.8-4 1.3-6.1 1.4-.6 0-1.1.4-1.3.9l-2.4 5.3-6.7-2 1.1-5.7c.1-.6-.1-1.1-.6-1.5-.8-.6-1.6-1.3-2.3-2.1s-1.3-1.6-1.9-2.5c-.3-.5-.8-.7-1.4-.7l-5.8.6-1.6-6.9 5.5-1.9c.5-.2.9-.7 1-1.2.1-.7.2-1.3.3-1.9.3-1.4.8-2.8 1.5-4.1.3-.5.2-1.1-.1-1.6l-3.4-4.7z"/><path d="m98.6 0h1.4z"/><path d="m72.3 42.2 19.7 19.7c4.4 4.4 11.6 4.4 16 0l39.8-39.9c4.4-4.4 4.4-11.6 0-16l-6.1-6h-4.2l8.2 8.2c3.3 3.3 3.3 8.5 0 11.8l-39.9 39.9c-3.3 3.3-8.5 3.3-11.8 0l-19.6-19.8c-3.3-3.3-3.3-8.5 0-11.8l28.3-28.3h-2.7c-.5 0-1 0-1.4 0l-26.3 26.3c-4.4 4.4-4.4 11.5 0 15.9z"/><path d="m110.1 40.6c.4.4.9.5 1.4.4.3-.1.5-.2.7-.4s.3-.4.4-.7l6-22.5c.1-.5 0-1-.4-1.4s-.9-.5-1.4-.4l-22.5 6c-.5.1-.9.5-1 1s0 1 .4 1.4zm5-21.5-4.7 17.6-12.9-12.9z"/><path d="m68.1 131.4c2.1 2.7 5.2 4.3 8.6 4.4 3.1.1 6-1.1 8.1-3.3l.7-.7c1.6-1.9 2.5-4.4 2.6-7 0-2.4-.7-4.7-2.1-6.5-.6-.8-1.3-1.6-2.1-2.2-4.8-3.9-11.6-3.2-15.5 1.5-1 1.2-1.8 2.7-2.2 4.3-.8 3.2-.2 6.6 1.7 9.3.1.1.1.2.2.2zm1-8.7c.3-1.1.9-2.2 1.6-3.1.2-.2.3-.4.5-.6 3-3 7.6-3.3 10.9-.6.6.5 1.1 1 1.5 1.6 1 1.4 1.5 3.1 1.5 4.8 0 1.9-.7 3.7-1.9 5.1-1.6 1.9-4 3-6.5 3-2.5-.1-4.8-1.3-6.3-3.3 0 0-.1-.1-.1-.1l-.1-.1c-1.3-1.9-1.7-4.4-1.1-6.7z"/><path d="m471.6 98.7-21.5 21.5c-4.7 4.7-4.7 12.5 0 17.2l20.2 20.2c-1.8 2.8-1.4 6.5 1 8.9 1.3 1.3 3 2 4.7 2.1-4.1 7.4-3 17 3.2 23.2 2.8 2.8 6.3 4.6 10.1 5.4l-.1.1c-2.3 2.3-2.3 6.2 0 8.5l.3.3c2.1 2.1 5.4 2.3 7.7.7.9.3 1.9.7 2.8 1.1v-3.5c-.1 0-.1 0-.2-.1l.2-.2v-4.5l-4.2 4.2c-1.1 1.1-2.9 1.1-4 0l-.3-.3c-1.1-1.1-1.1-2.9 0-4l8.6-8.6v-4.5l-7.8 7.8c-4-.2-7.8-1.9-10.7-4.8-6.4-6.4-6.4-16.7 0-23.1 5-5 12.5-6.1 18.5-3.2v-3.5c-5.3-2-11.4-1.7-16.5 1.2-.1-1.7-.8-3.4-2.1-4.7-2.4-2.4-6.1-2.7-8.9-1l-20.2-20.2c-3.5-3.5-3.5-9.2 0-12.7l21.4-21.4c5.6 5.5 13 8.8 20.9 9.4 1.8.1 3.6.4 5.4.9v-3.3c-1.7-.4-3.4-.7-5.2-.8-7.2-.5-14-3.6-19.2-8.8-11.8-11.8-11.8-31 0-42.8 3-3 6.6-5.3 10.3-6.8-.6-.9-1.1-1.8-1.7-2.7-4 1.6-7.7 4-10.9 7.3-12.4 12.6-13 32.4-1.8 45.5zm1.9 59.9c1.6-1.6 4.1-1.6 5.7 0s1.6 4.1 0 5.7-4.1 1.6-5.7 0c-1.5-1.6-1.5-4.1 0-5.7z"/><path d="m496.3 90c-.6.6-.6 1.6 0 2.2 0 0 .1 0 .1.1.1.1.2.2.3.3l3.2 2.3c-.1-2-.3-3.9-.5-5.8-1-.2-2.1-.1-3.1.9z"/><path d="m467.1 49.4c.6.6 1.6.6 2.2 0s.6-1.6 0-2.2l-11.2-11.2c-.6-.6-1.6-.6-2.2 0s-.6 1.6 0 2.2z"/><path d="m444.6 60.4 12.9 2.8c.5.1 1.1-.1 1.5-.4.2-.2.4-.5.4-.8.2-.9-.4-1.7-1.2-1.9l-12.9-2.8c-.9-.2-1.7.4-1.9 1.2s.3 1.7 1.2 1.9z"/><path d="m491.3 166.9c0 .9.7 1.6 1.5 1.6 2.8.1 5.3 1 7.2 2.6v-3.9c-2.1-1.2-4.5-1.9-7.1-1.9-.9.1-1.6.8-1.6 1.6z"/><path d="m161.5 413.2s.1-.1.1-.2c.5-.7.4-1.7-.3-2.2-6.4-4.9-14.4-7.1-22.6-6.3-.9.1-1.5.9-1.4 1.7s.9 1.5 1.7 1.4c7.4-.8 14.7 1.2 20.4 5.6.7.6 1.6.6 2.1 0z"/><path d="m104.6 389.5c-.6-.6-1.6-.6-2.2 0s-.6 1.6 0 2.2l11.2 11.2c.6.6 1.6.6 2.2 0s.6-1.6 0-2.2z"/><path d="m104.6 413.6-12.9-2.8c-.9-.2-1.7.4-1.9 1.2-.2.9.4 1.7 1.2 1.9l12.9 2.8c.5.1 1.1-.1 1.5-.4.2-.2.4-.5.4-.8.2-.9-.3-1.7-1.2-1.9z"/><path d="m125.4 377.2c-.2-.8-1.1-1.3-2-1.1-.8.2-1.3 1.1-1.1 2l4 14c.2.8 1.1 1.3 2 1.1.3-.1.5-.2.7-.4.4-.4.6-1 .4-1.6z"/><path d="m291 485.3-9.9-9.9c-.2-.2-.3-.5-.3-.8 1-8.4-2.1-17.1-8.3-23.3-10.8-10.8-27.8-11.4-37.9-1.3-.2.2-.4.5-.6.7l-14-13.8c-4.7-4.7-12.5-4.7-17.2 0l-10.7 10.7c-1-.6-2.2-1-3.5-1-1.1 0-2.2.3-3.2.8-5.1-5.3-8.2-12.1-8.7-19.1-.6-8-4-15.5-9.7-21.2-13-13-34.3-13-47.3 0-12.4 12.4-13 32.2-1.8 45.3l-21.5 21.5c-4.7 4.7-4.7 12.5 0 17.2l9 9h4.5l-11.3-11.3c-3.5-3.5-3.5-9.2 0-12.7l21.4-21.4c5.6 5.5 13 8.8 20.9 9.4 7.1.5 13.9 3.6 19.1 8.7-1.4 2.5-1 5.8 1.2 7.9 1.3 1.3 3 2 4.7 2h.6c-.2 1.9.5 3.9 1.9 5.3 1.3 1.3 2.9 2 4.7 2 1.7 0 3.4-.7 4.6-1.9 1.2 1.1 2.8 1.7 4.4 1.7 1.8 0 3.5-.7 4.7-2l.2-.2c1 .6 2.2 1 3.5 1 1.8 0 3.5-.7 4.7-2l3.7-3.7c2.2-2.2 2.6-5.6 1-8.2l.2-.2c2.5-2.5 2.6-6.5.3-9.2 2.5-2.6 2.5-6.8-.1-9.4-1.3-1.3-3-2-4.7-2-.2 0-.4 0-.6 0 .1-1.4-.2-2.8-1-4l10.7-10.7c3.5-3.5 9.2-3.5 12.7 0l14.1 14.1c-6.4 9-6.2 21.5.9 31.2 1.8 2.4 3.1 4.9 4.1 7.4l2.8 6.9c.2.6.6 1 1.1 1.4h3.4c.2-.1.3-.2.5-.4l1.5-1.5 1.8 1.8h4.5l-5.2-5.2c-.6-.6-1.6-.6-2.2 0l-2.4 2.4-2.7-6.7c-1.1-2.7-2.6-5.4-4.5-8-7-9.7-6.4-22.4 1.5-30.2 8.9-8.9 23.9-8.3 33.4 1.3 5.5 5.5 8.3 13.3 7.4 20.7-.2 1.3.3 2.5 1.2 3.4l9.9 9.9c.2.2.2.5 0 .7l-11.5 11.6h4.5l9.4-9.4c1.5-1.5 1.5-3.8.1-5.3zm-149.7-24.5c-7.2-.5-14-3.6-19.2-8.8-11.8-11.8-11.8-31 0-42.8s31-11.8 42.8 0c5.1 5.1 8.3 11.9 8.8 19.2.6 7.8 3.9 15.2 9.4 21l-5.8 5.8-18.4-24.9c-.1-.1-.2-.2-.3-.3 0 0 0 0-.1-.1-.6-.6-1.6-.6-2.2 0-1.5 1.5-.9 3.6-.4 5 .2.5.5 1.5.4 1.8-.3.1-1.3-.2-1.8-.4-1.5-.5-3.5-1.2-5 .4-1.5 1.5-.9 3.6-.4 5 .2.5.5 1.5.4 1.8-.3.1-1.3-.2-1.8-.4-1.5-.5-3.5-1.2-5 .4-.6.6-.6 1.6 0 2.2 0 0 .1 0 .1.1.1.1.2.2.3.3l24.9 18.4-5.8 5.8c-5.8-5.6-13.2-8.9-20.9-9.5zm10.9-20.1c-.2-.5-.5-1.5-.4-1.8.3-.1 1.3.2 1.8.4 1.5.5 3.5 1.2 5-.4.8-.8 1-1.6 1-2.5l15.5 21-4.8 4.8-21-15.5c.9 0 1.7-.2 2.5-1 1.6-1.5.9-3.5.4-5zm13.9 38.7c-.9 0-1.8-.4-2.5-1-1.4-1.4-1.4-3.6 0-5l11.3-11.3 11.3-11.3c.7-.7 1.6-1 2.5-1s1.8.4 2.5 1c1.4 1.4 1.4 3.6 0 5l-22.6 22.6c-.7.6-1.5 1-2.5 1zm30.9 1.1-3.7 3.7c-.7.7-1.6 1-2.5 1-.4 0-.8-.1-1.1-.2l8.2-8.2c.4 1.3.1 2.7-.9 3.7zm1.2-8.5-1.2 1.2-10.9 10.9-1.2 1.2c-.7.7-1.6 1-2.5 1-.4 0-.9-.1-1.3-.2l17.9-17.9c.5 1.3.3 2.8-.8 3.8zm-2.3-15c.9 0 1.8.4 2.5 1 1.4 1.4 1.4 3.6 0 5l-22.6 22.6c-.7.7-1.6 1-2.5 1s-1.8-.4-2.5-1c-1.4-1.4-1.4-3.6 0-5l22.6-22.6c.7-.7 1.6-1 2.5-1z"/><path d="m260.2 498-2 2h4.8.1 4.8l-2-2c-1.5-1.6-4.1-1.6-5.7 0z"/><path d="m269.1 456.9c-5.9-5.9-14.2-8-21.7-5.7-.8.3-1.3 1.2-1 2s1.2 1.3 2 1c6.3-2 13.5-.1 18.5 4.9l.7.7c.6.7 1.6.7 2.2.1 0 0 0 0 .1-.1.6-.6.6-1.6.1-2.2-.4-.1-.7-.4-.9-.7z"/><path d="m283.9 153.6-1.3 1.3c-2.9 2.9-2.9 7.6 0 10.5l20.2 20.2c2.9 2.9 7.6 2.9 10.5 0l9.8-9.8c2.9-2.9 2.9-7.6 0-10.5l-20.2-20.2c-2.9-2.9-7.6-2.9-10.5 0l-1.3 1.3-5.5-5.5 1.3-1.3c2.9-2.9 2.9-7.6 0-10.5l-20.2-20.2c-2.9-2.9-7.6-2.9-10.5 0l-9.8 9.8c-2.9 2.9-2.9 7.6 0 10.5l20.2 20.2c2.9 2.9 7.6 2.9 10.5 0l1.3-1.3 1.7 1.7-35.9 35.9c-3.4 3.4-8.9 3.4-12.2 0l-21.5-21.5c.9-.8 1.8-1.6 2.6-2.4 1.1-1.1 2.1-2.2 3.1-3.4 1-1.3 2-2.6 2.8-4 1.6-2.5 2.8-5.1 3.9-7.8 1.2-3.3 2-6.7 2.4-10.1 1.4-12.8-3-25.4-12.1-34.4-1.3-1.3-2.6-2.4-4-3.5-9.7-7.5-22.2-10.5-34.5-8-8.1 1.7-15.5 5.6-21.4 11.5-3.8 3.8-6.8 8.2-8.9 13.1-6.7 15.6-3.6 33.3 7.8 45.6l-27.7 27.7c-4.6 4.6-4.6 12 0 16.6l21.5 21.5c-1.3 2.1-1 4.8.7 6.6l1 1c-13 16.4-13 39.5 0 56l-1 1c-1 1-1.6 2.4-1.6 3.8s.6 2.8 1.6 3.8c2.1 2.1 5.5 2.1 7.6 0l1-1c16.4 13 39.5 13 56 0l1 1c1 1 2.4 1.6 3.8 1.6s2.8-.6 3.8-1.6c2.1-2.1 2.1-5.5 0-7.6l-1-1c13-16.4 13-39.5 0-56l1-1c1-1 1.6-2.4 1.6-3.8s-.6-2.8-1.6-3.8c-2.1-2.1-5.5-2.1-7.6 0l-1 1c-16.4-13-39.5-13-56 0l-1-1c-1-1-2.4-1.6-3.8-1.6-.8 0-1.5.2-2.2.5l-21.6-21.6c-3.4-3.4-3.4-8.9 0-12.2l27.7-27.7.5.5c3.9 3.5 8.2 6.2 13.1 8 5.5 2.1 11.6 3.1 17.5 2.7 8.2-.4 16-3.3 22.5-8l21.7 21.7c4.6 4.6 12 4.6 16.6 0l35.9-35.9zm-134 82.6 1.9 1.9c-10.7 14.1-10.7 33.7 0 47.8l-1.9 1.9c-11.8-15.1-11.8-36.3 0-51.6zm12.1-2.9-.5-.5c12.8-9.6 30.6-9.6 43.5 0l-.5.5c-2.1 2.1-2.1 5.5 0 7.6s5.5 2.1 7.6 0l.5-.5c9.6 12.8 9.6 30.6 0 43.5l-.5-.5c-2.1-2.1-5.5-2.1-7.6 0s-2.1 5.5 0 7.6l.5.5c-12.8 9.6-30.6 9.6-43.5 0l.5-.5c2.1-2.1 2.1-5.5 0-7.6s-5.5-2.1-7.6 0l-.5.5c-9.6-12.8-9.6-30.6 0-43.5l.5.5c2.1 2.1 5.5 2.1 7.6 0 2.1-2.2 2.1-5.6 0-7.6zm-7.9 61.2-2 2c-.9.9-2.4.9-3.2 0-.4-.4-.7-1-.7-1.6s.2-1.2.7-1.6l2-2 4.1-4.1 1.7-1.7c.9-.9 2.3-.9 3.2 0s.9 2.3 0 3.2l-1.7 1.7zm3.4.9 1.9-1.9c14.1 10.7 33.7 10.7 47.8 0l1.9 1.9c-15.2 11.8-36.4 11.8-51.6 0zm60.2 1.1c-.4.4-1 .7-1.6.7s-1.2-.2-1.6-.7l-6-6-1.7-1.7c-.9-.9-.9-2.3 0-3.2s2.4-.9 3.2 0l5.8 5.8 2 2c.8.7.8 2.2-.1 3.1zm-1.1-8.6-1.9-1.9c10.7-14.1 10.7-33.7 0-47.8l1.9-1.9c11.9 15.2 11.9 36.4 0 51.6zm-2.2-60.2c.9-.9 2.3-.9 3.2 0 .4.4.7 1 .7 1.6s-.2 1.2-.7 1.6l-2 2-5.8 5.8c-.9.9-2.4.9-3.2 0-.9-.9-.9-2.4 0-3.2l1.7-1.7zm-5.3 1-1.9 1.9c-14.1-10.7-33.7-10.7-47.8 0l-1.9-1.9c15.2-11.8 36.4-11.8 51.6 0zm-60.2-1c.4-.4 1-.7 1.6-.7s1.2.2 1.6.7l2 2 4.1 4.1 1.7 1.7c.9.9.9 2.4 0 3.2-.9.9-2.3.9-3.2 0l-1.7-1.7-4.1-4.1-2-2c-.9-.9-.9-2.4 0-3.2zm27.2-134.4c.3 0 .5-.1.8-.1.4-.1.8-.1 1.2-.2s.8-.1 1.2-.1.8-.1 1.2-.1.8 0 1.2-.1h1.2 1.2 1.2c.4 0 .8.1 1.2.1s.8.1 1.2.1.8.1 1.2.2.8.1 1.2.2.8.2 1.2.2c.4.1.8.2 1.2.2l1.2.3c.4.1.8.2 1.1.3.4.1.8.3 1.2.4s.7.2 1.1.4c.4.1.8.3 1.1.5.4.1.7.3 1.1.4.4.2.8.4 1.1.5.3.2.7.3 1 .5.4.2.7.4 1.1.6.3.2.6.4 1 .5.4.2.8.5 1.1.7s.6.4.9.6c.4.3.8.6 1.1.8s.5.4.8.6c.4.3.8.7 1.2 1 .2.2.4.4.6.5.6.5 1.2 1.1 1.8 1.7.5.5 1 1 1.5 1.6.2.2.3.4.5.5.3.4.6.7.9 1.1.2.2.4.5.5.7.3.3.5.7.8 1 .2.3.4.5.5.8.2.3.5.7.7 1s.3.5.5.8.4.7.6 1 .3.6.5.9.4.7.5 1 .3.6.4.9c.2.3.3.7.5 1 .1.3.2.6.4.9.1.4.3.7.4 1.1.1.3.2.6.3.9.1.4.2.7.3 1.1.1.3.2.6.3 1s.2.7.3 1.1c.1.3.2.7.2 1 .1.4.2.7.2 1.1.1.3.1.7.2 1 .1.4.1.8.2 1.1 0 .3.1.7.1 1 0 .4.1.8.1 1.1s0 .7.1 1v1.2 1 1.2 1 .5c-13.7-.2-17.9-9.8-20.9-16.9-.4-.8-.7-1.6-1.1-2.4-1.8-3.5-4-5.7-6.6-6.5-2.1-.7-4.4-.4-6.8.9-2.5 1.3-5.4 1.3-7.8 0-2.4-1.2-3.9-3.4-4.2-6.1-.7-3.1-.2-6.6 1-10.3zm-7.7 74.9c-.2-.1-.4-.2-.6-.3-.3-.1-.6-.2-.9-.4-.3-.1-.6-.3-1-.5-.3-.1-.6-.3-.8-.4-.3-.2-.6-.3-1-.5-.3-.1-.5-.3-.8-.4-.3-.2-.6-.4-.9-.6-.2-.2-.5-.3-.7-.5-.3-.2-.6-.4-.9-.7-.2-.2-.5-.3-.7-.5-.3-.2-.6-.5-1-.7-.2-.2-.4-.3-.6-.5-.3-.3-.7-.6-1-.9-.2-.1-.3-.3-.5-.4-.5-.4-.9-.9-1.4-1.3 0 0 0-.1-.1-.1 0 0-.1 0-.1-.1-.7-.7-1.3-1.4-2-2.1-.2-.3-.4-.5-.6-.8-.4-.5-.8-1-1.2-1.5-.2-.3-.4-.6-.7-1-.3-.5-.7-.9-1-1.4-.2-.4-.4-.7-.6-1.1-.3-.5-.6-.9-.8-1.4-.2-.4-.4-.8-.6-1.2-.2-.5-.5-.9-.7-1.4-.2-.4-.3-.8-.5-1.2-.2-.5-.4-.9-.6-1.4-.2-.4-.3-.9-.4-1.3-.2-.5-.3-1-.4-1.4s-.2-.9-.3-1.3c-.1-.5-.2-1-.3-1.5-.1-.4-.2-.9-.2-1.4-.1-.5-.2-1-.2-1.5-.1-.5-.1-.9-.1-1.4s-.1-1-.1-1.5 0-.9 0-1.4 0-1 0-1.5 0-.9.1-1.4c0-.5.1-1 .1-1.5s.1-.9.2-1.4.1-1 .2-1.5.2-.9.3-1.4.2-1 .3-1.5.3-.9.4-1.4.3-1 .4-1.5c.2-.5.3-.9.5-1.4.1-.3.2-.6.4-.9 6.2.5 10.2 3.3 11.8 8.2 2.4 7.1 6.3 9 9.1 9.4 3.3.5 6.1 2.3 7.4 4.9 1.3 2.5 1.1 5.5-.5 8.8-1.4 2.8-1.1 5.6-.9 8 .3 4.4.7 7.9-5.5 12.1zm15 2.9c-3.9 0-7.8-.5-11.6-1.7.6-.5 1.1-.9 1.6-1.4 4.2-4.2 3.8-8.2 3.4-11.8-.3-2.3-.5-4.3.5-6.3 2.7-5.2 1.8-9.2.5-11.6-1.8-3.5-5.4-5.9-9.7-6.5-2.9-.4-5.1-2.9-6.6-7.4-2-5.8-6.6-9.3-13.4-10.1 1.9-3.8 4.3-7.2 7.4-10.2 4.8-4.8 10.7-8.3 17.2-10.1-1 3.5-1.3 6.9-.9 10 .5 3.6 2.6 6.7 5.9 8.4s7.3 1.7 10.7-.1c1.6-.9 3.1-1.1 4.4-.7 1.7.6 3.4 2.2 4.8 5 .3.7.7 1.5 1 2.3 3 6.9 7.9 18.3 23.4 18.7-.3 2.1-.8 4.3-1.5 6.3-2.9-.9-9.3-2.5-12-1.1-3 1.5-3.7 3.6-4.3 5.6-.5 1.7-1.1 3.6-3.5 5.7-1.3 1.2-2.3 1.2-3.9 1.3-2.2.1-5 .2-9.1 3.1-4 2.8-5.1 8.2-4.3 12.6zm25.8-9.9c-.3.3-.6.5-.9.8-.2.2-.4.3-.6.4-.3.2-.5.4-.8.7-.2.2-.4.3-.6.5-.3.2-.5.4-.8.6-.2.2-.4.3-.7.4-.3.2-.5.4-.8.5-.2.1-.5.3-.7.4-.3.2-.5.3-.8.5-.2.1-.5.3-.7.4-.3.1-.5.3-.8.4-.2.1-.5.2-.7.4-.3.1-.6.3-.8.4-.3.1-.5.2-.8.3s-.6.2-.8.4c-.3.1-.5.2-.8.3s-.6.2-.9.3-.5.2-.8.3-.6.2-.9.3-.5.2-.8.2c-.3.1-.6.2-.9.2-.3.1-.5.1-.8.2s-.6.1-.9.2-.6.1-.8.2c-.3.1-.6.1-.9.1s-.6.1-.9.1-.6.1-.9.1-.6.1-.9.1c-.1 0-.2 0-.3 0-.7-3.1-.3-7.6 2.9-9.8 3.4-2.3 5.5-2.4 7.5-2.5 1.8-.1 3.7-.2 5.8-2.1 3-2.7 3.8-5.1 4.4-7.1.5-1.7.9-2.8 2.7-3.7 1-.5 5-.1 9.6 1.3 0 .1-.1.2-.1.3-.1.2-.2.5-.3.7-.2.4-.3.7-.5 1.1-.1.3-.2.5-.4.7-.2.4-.4.7-.6 1-.1.2-.3.5-.4.7-.2.3-.4.7-.6 1-.1.2-.3.5-.5.7-.2.3-.4.7-.7 1-.2.2-.3.5-.5.7-.2.3-.5.7-.7 1-.2.2-.3.4-.5.6-.3.4-.6.7-.9 1-.1.2-.3.3-.4.5-.5.5-.9 1-1.4 1.5-.4.4-.8.8-1.3 1.2 0 .3-.2.4-.3.5zm85.3-13.9c1.7-1.7 4.5-1.7 6.2 0l20.2 20.2c1.7 1.7 1.7 4.5 0 6.2l-9.8 9.8c-1.7 1.7-4.5 1.7-6.2 0l-20.2-20.2c-1.7-1.7-1.7-4.5 0-6.2l1.3-1.3 1.3 1.3c-1.5 2.1-1.4 5.1.6 7.1l16.3 16.3c2.1 2.1 5.6 2.1 7.7 0l5.9-5.9c2.1-2.1 2.1-5.6 0-7.7l-16.3-16.3c-1.9-1.9-4.9-2.1-7.1-.6l-1.3-1.3zm2.4 5.1-.3-.3c.9-.4 2-.2 2.7.5l16.3 16.3c.9.9.9 2.5 0 3.4l-5.9 5.9c-.9.9-2.5.9-3.4 0l-16.3-16.3c-.7-.7-.9-1.8-.5-2.7l.3.3c1.4 1.4 3.6 1.4 5 0l2.1-2.1c1.4-1.4 1.4-3.6 0-5zm-22-5.1c-1.7 1.7-4.5 1.7-6.2 0l-20.3-20.3c-1.7-1.7-1.7-4.5 0-6.2l9.8-9.8c1.7-1.7 4.5-1.7 6.2 0l20.2 20.2c1.7 1.7 1.7 4.5 0 6.2l-1.3 1.3-1.3-1.3c1.5-2.1 1.4-5.1-.6-7.1l-16.3-16.3c-2.1-2.1-5.6-2.1-7.7 0l-5.9 5.9c-2.1 2.1-2.1 5.6 0 7.7l16.3 16.3c1.9 1.9 4.9 2.1 7.1.6l1.3 1.3zm-2.4-5.1.3.3c-.9.4-2 .2-2.7-.5l-16.3-16.3c-.9-.9-.9-2.5 0-3.4l5.9-5.9c.9-.9 2.5-.9 3.4 0l16.3 16.3c.7.7.9 1.8.5 2.7l-.3-.3c-1.4-1.4-3.6-1.4-5 0l-2.1 2.1c-1.4 1.4-1.4 3.6 0 5zm7 2.6-3.4-3.4-1.5-1.5c-.2-.2-.2-.5 0-.6l2.1-2.1c.2-.2.5-.2.6 0l1.5 1.5 3.4 3.4 7.7 7.7 3.4 3.4 1.5 1.5c.2.2.2.5 0 .6l-2.1 2.1c-.2.2-.5.2-.6 0l-1.5-1.5-3.4-3.4z"/><path d="m147.6 127.9c0 .8.7 1.5 1.5 1.6.4 0 .8-.2 1.1-.4.3-.3.4-.6.4-1 0-.1 0-.3 0-.5s.1-.3.1-.4c.1-.8-.5-1.6-1.3-1.7s-1.6.5-1.7 1.3v.3.3.3c-.1 0-.1.1-.1.2z"/><path d="m150.4 132.1c0-.8-.7-1.5-1.6-1.5-.8 0-1.5.7-1.5 1.6.2 9.1 3.5 17.8 9.4 24.3.6.6 1.5.7 2.2.1 0 0 0 0 .1-.1.6-.6.6-1.5.1-2.1-5.4-5.9-8.5-13.8-8.7-22.3z"/><path d="m177.3 265.2c-3.6 7.4-2.4 16.6 3.8 22.8l3.7 3.7c.6.6 1.6.6 2.2 0l26-26c.6-.6.6-1.6 0-2.2l-3.7-3.7c-6.2-6.2-15.4-7.4-22.8-3.8.8-3.7-.3-7.7-3.2-10.6-4.6-4.6-12-4.6-16.6 0s-4.6 12 0 16.6c2.8 2.9 6.9 4 10.6 3.2zm29.7-3.2 2.6 2.6-23.8 23.8-2.6-2.6c-6.6-6.6-6.6-17.2 0-23.8s17.3-6.5 23.8 0zm-38.2-14.4c3.4-3.4 8.9-3.4 12.3 0s3.4 8.9 0 12.3-8.9 3.4-12.3 0-3.4-8.9 0-12.3z"/><path d="m16.6 196c-7.8 7.8-7.8 20.5 0 28.3s20.5 7.8 28.3 0 7.8-20.5 0-28.3-20.5-7.8-28.3 0zm25.5 25.5c-6.3 6.3-16.5 6.3-22.7 0-6.3-6.3-6.3-16.5 0-22.7 6.3-6.3 16.5-6.3 22.7 0 6.2 6.2 6.2 16.4 0 22.7z"/><path d="m41.6 343.6 9.9 9.9c5.2 5.2 13.7 5.2 19 0 5.2-5.2 5.2-13.7 0-19l-9.9-9.9 33.1-33.1c5.9-5.9 5.9-15.4 0-21.3l-23.7-23.6c-1.1-5.6-9.7-46.4-19.6-56.3-10.9-10.9-28.6-10.9-39.5 0s-10.9 28.6 0 39.5c9.9 9.9 50.7 18.5 56.3 19.6l23.7 23.7c4.3 4.3 4.3 11.4 0 15.7l-33.1 33.1-18-18c-.8-.8-2-.8-2.8 0l-2.3 2.3-11.9-11.9c6.9-12.1 5-27.6-5-37.6-5-5-11.2-7.9-17.7-8.8v4c5.5.9 10.7 3.4 15 7.6 9 9 10.6 23.3 3.6 34.1-1.5 2.4-3.6 4.7-5.9 6.5-.8.6-1.5 1.2-2.3 1.7-3.2 2.1-6.8 3.4-10.4 4v3.9c3.9-.5 7.7-1.8 11.2-3.8l11.9 11.9-2.3 2.3c-.8.8-.8 2 0 2.8l18 18-32.2 32.1c-1.9 1.9-4.3 2.9-6.7 3.2v3.9c3.5-.3 6.8-1.7 9.5-4.3zm-27.9-116.6c-9.4-9.4-9.4-24.6 0-33.9s24.6-9.4 33.9 0c8.2 8.2 15.9 41.8 18 52-10.1-2.2-43.8-9.9-51.9-18.1zm.8 76.6c.1-.1.2-.1.3-.2.4-.3.7-.6 1.1-.9.1-.1.3-.2.4-.4.5-.4 1-.9 1.4-1.3.5-.5.9-1 1.3-1.4.1-.1.2-.3.4-.4.3-.4.6-.7.9-1.1.1-.1.1-.2.2-.3l11.4 11.4-3 3-3 3zm10.4 17.9 2.3-2.3 4.4-4.4 6.7-6.7 29.4 29.4c3.7 3.7 3.7 9.7 0 13.4s-9.7 3.7-13.4 0z"/><path d="m12.8 295.9c1.3-1.3 2.3-2.6 3.2-4 6.1-9.5 4.8-22.2-3.2-30.2-3.6-3.6-8.1-5.8-12.8-6.7v2.7c4 .8 7.8 2.8 10.9 5.9 7.1 7.1 8.3 18.5 2.9 26.9-1.6 2.5-3.9 4.9-6.5 6.5-2.3 1.5-4.8 2.4-7.3 3v2.7c3-.5 6-1.7 8.7-3.4 1.4-1.1 2.8-2.2 4.1-3.4z"/><path d="m326.3 3.9c1.2-1.2 2.1-2.5 2.7-3.9h-4.5c-.3.4-.6.8-1 1.2-3.8 3.8-10.1 3.8-13.9 0-.4-.4-.7-.8-1-1.2h-4.5c.7 1.4 1.6 2.8 2.7 3.9 5.4 5.4 14.1 5.4 19.5 0z"/><path d="m330.4 10.8 11.4 11.4c5.9 5.9 15.4 5.9 21.3 0l22.1-22.2h-5.5l-19.4 19.4c-4.3 4.3-11.4 4.3-15.7 0l-11.5-11.4c2-2.4 3.4-5.1 4.2-8h-4.1c-.8 2.4-2.2 4.8-4.2 6.7-6.9 6.9-18.1 6.9-25 0-2-2-3.4-4.3-4.2-6.7h-4.1c1 3.5 2.8 6.8 5.5 9.5 8 7.9 20.7 8.4 29.2 1.3z"/><path d="m421.1 2.2c-5.2-1.1-10.5-1.8-15.9-2.1 4.3 4.3 10.8 5 15.9 2.1z"/><path d="m368.5 144.9c.2-.8-.3-1.6-1.1-1.9-.8-.2-1.6.3-1.8 1.1-1.6 6-1.2 12.6 1.2 18.3.3.8 1.2 1.2 2 .8.2-.1.4-.2.5-.3.4-.4.6-1.1.3-1.6-2.1-5.1-2.5-11-1.1-16.4z"/><path d="m282.4 394.7-.1-.1.1-2.9c.1-1.9.1-3.3 0-4.2s-.3-1.7-.6-2.3c-.3-.7-.7-1.3-1.2-1.8-.6-.6-1.3-1-2.1-1.2s-1.6-.1-2.4.2-1.6.8-2.3 1.5c-.6.6-1 1.1-1.3 1.7s-.6 1.1-.8 1.7-.3 1.4-.4 2.5l2.9.2c.1-.8.2-1.6.4-2.2s.6-1.2 1-1.6.9-.7 1.4-.7 1 .2 1.4.7c.3.3.6.7.7 1.1.2.4.3.9.4 1.5s.1 1.8.1 3.5v5.9l1.7 1.7 8.1-8.1-2.1-2.1z"/><path d="m296.7 379.8-1.9-1.9-1.4 1.4-7.3-7.3-2.3 2.3 2.4 12.6 1.7 1.7 5-5 2.4 2.4 2.4-2.4-2.4-2.4zm-8.5 4.6-1.1-5.3c-.1-.7-.3-1.3-.6-2l.1-.1c.1.1.4.5 1 1.2s1.1 1.1 1.4 1.5l2 2z"/><path d="m292.2 365.8 7.3 16 2.2-2.2-7.3-16z"/><path d="m299.2 358.9-.8 6.7 2.7.3.3-2.4c0-.3 0-.8 0-1.7l1.2 1.2 1.1 1.1 6.7 6.7 2.5-2.5-11.6-11.6z"/><path d="m355.6 251.1c2.6-2.6 2.6-6.9 0-9.5s-6.9-2.6-9.5 0-2.6 6.9 0 9.5 6.8 2.6 9.5 0zm-7.4-7.3c1.4-1.4 3.8-1.4 5.2 0s1.4 3.8 0 5.2-3.8 1.4-5.2 0-1.4-3.8 0-5.2z"/><path d="m338 268.7c2.6-2.6 2.6-6.9 0-9.5s-6.9-2.6-9.5 0-2.6 6.9 0 9.5 6.8 2.6 9.5 0zm-7.4-7.3c1.4-1.4 3.8-1.4 5.2 0s1.4 3.8 0 5.2-3.8 1.4-5.2 0c-1.4-1.5-1.4-3.8 0-5.2z"/><path d="m320.4 276.8c-2.6-2.6-6.9-2.6-9.5 0s-2.6 6.9 0 9.5 6.9 2.6 9.5 0 2.6-6.9 0-9.5zm-2.2 7.4c-1.4 1.4-3.8 1.4-5.2 0s-1.4-3.8 0-5.2 3.8-1.4 5.2 0 1.4 3.7 0 5.2z"/><path d="m319.5 350.6c-6.9-6.9-18.1-6.9-25 0l-14.6 14.6-16.8-16.8c-3.3-3.3-3.3-8.8 0-12.2l35.9-35.9 15.4 15.4c2.6 2.6 6.7 2.6 9.3 0l13.9-13.9 7.5 18c.3.6.9 1 1.6.9.3-.1.6-.2.8-.4s.4-.6.4-1l2.5-30.4 7.5-7.5 5 5c2.3 2.3 6 2.3 8.3 0l29.9-29.9 26.2-2.1c.4 0 .7-.2 1-.4.2-.2.4-.5.4-.8.1-.7-.3-1.4-.9-1.6l-15.3-6.3 11.8-11.8c2.3-2.3 2.3-6 0-8.3l-13.2-13.2 10.8-10.8c4.5-4.5 4.5-11.9 0-16.4l-27.3-27.3 18.5-18.5c.6-.6.6-1.6 0-2.1l-5.5-5.5c-9.4-9.4-23.8-11-34.9-4.8 1.8-5.8.4-12.3-4.2-16.9-6.6-6.6-17.3-6.6-23.9 0s-6.6 17.3 0 23.9c4.6 4.6 11.1 6 16.9 4.2-6.3 11.1-4.7 25.5 4.8 34.9l5.5 5.5c.6.6 1.6.6 2.1 0l18.5-18.5 27.3 27.3c3.3 3.3 3.3 8.8 0 12.2l-10.7 10.6-13.2-13.2c-2.3-2.3-6-2.3-8.3 0l-25.5 25.5-9.9-9.9c-2.6-2.6-6.7-2.6-9.3 0l-61.4 61.4c-2.6 2.6-2.6 6.7 0 9.3l15.4 15.4-35.8 35.8c-4.5 4.5-4.5 11.9 0 16.4l16.8 16.8-14.6 14.6c-6.9 6.9-6.9 18.1 0 25s18.1 6.9 25 0l31.3-31.3c6.9-6.9 6.9-18.1 0-25zm27.3-219.3c-5.4-5.4-5.4-14.2 0-19.6s14.2-5.4 19.6 0 5.4 14.2 0 19.6-14.2 5.4-19.6 0zm26.1 43.5-4.4-4.4c-10.2-10.2-10.2-26.8 0-37s26.8-10.2 37 0l4.4 4.4zm16.7 23.9c1.1-1.1 2.9-1.1 4 0l14.2 14.2 14.2 14.2c1.1 1.1 1.1 2.9 0 4l-13.4 13.4c-.4.4-.5.9-.4 1.4s.4.9.9 1.1l11.6 4.8-20.5 1.7c-.4 0-.7.2-1 .4l-30.2 30.4c-1.1 1.1-2.9 1.1-4 0l-5-5 25-25c2.6-2.6 2.6-6.7 0-9.3l-20.9-20.9zm-106 82c-1.4-1.4-1.4-3.6 0-5l61.4-61.4c1.4-1.4 3.6-1.4 5 0l11 11 21.9 21.9c1.4 1.4 1.4 3.6 0 5l-26.1 26.1-9 9c-.3.3-.4.6-.4 1l-2 24.6-5.9-14.3c-.2-.5-.6-.8-1.1-.9s-1 .1-1.4.4l-15.5 15.5c-1.4 1.4-3.6 1.4-5 0zm2.5 124.1c-5.7 5.7-15 5.7-20.8 0-5.7-5.7-5.7-15 0-20.8l15.6-15.6 15.6-15.6c5.7-5.7 15-5.7 20.8 0 5.7 5.7 5.7 15 0 20.8z"/><path d="m398.8 230.6c2.3-2.3 2.3-6.1 0-8.5s-6.1-2.3-8.5 0-2.3 6.1 0 8.5 6.1 2.3 8.5 0zm-6.4-6.4c1.2-1.2 3-1.2 4.2 0s1.2 3 0 4.2-3 1.2-4.2 0c-1.1-1.1-1.1-3 0-4.2z"/><path d="m83.2 182.1h-5.3v-5.3c0-.7-.6-1.3-1.3-1.3s-1.3.6-1.3 1.3v5.3h-5.3c-.7 0-1.3.6-1.3 1.3s.6 1.3 1.3 1.3h5.3v5.3c0 .7.6 1.3 1.3 1.3.4 0 .7-.2 1-.4s.4-.6.4-1v-5.3h5.3c.4 0 .7-.2 1-.4s.4-.6.4-1c-.2-.5-.8-1.1-1.5-1.1z"/><path d="m368 55.4h5.3v5.3c0 .7.6 1.3 1.3 1.3.4 0 .7-.2 1-.4.2-.2.4-.6.4-1v-5.3h5.3c.4 0 .7-.2 1-.4s.4-.6.4-1c0-.7-.6-1.3-1.3-1.3h-5.4v-5.3c0-.7-.6-1.3-1.3-1.3s-1.3.6-1.3 1.3v5.3h-5.4c-.7 0-1.3.6-1.3 1.3s.5 1.5 1.3 1.5z"/><path d="m263.3 287.7c.2-.2.4-.6.4-1 0-.7-.6-1.3-1.3-1.3h-5.4v-5.3c0-.7-.6-1.3-1.3-1.3s-1.3.6-1.3 1.3v5.3h-5.4c-.7 0-1.3.6-1.3 1.3s.6 1.3 1.3 1.3h5.3v5.3c0 .7.6 1.3 1.3 1.3.4 0 .7-.2 1-.4s.4-.6.4-1v-5.3h5.3c.4.2.7.1 1-.2z"/><path d="m288.1 90.8c.1.4.4.7.8.8l10.1 2.4c.4.1.7 0 1-.3s.4-.6.3-1l-2.5-10.1c-.1-.4-.4-.7-.8-.8l-10.1-2.5c-.4-.1-.7 0-1 .3s-.4.6-.3 1zm7.8-7 1.9 7.8-7.8-1.9-1.9-7.8z"/><path d="m101.2 244.5c.1.4.4.7.8.8l10.1 2.5c.4.1.7 0 1-.3s.4-.6.3-1l-2.5-10.1c-.1-.4-.4-.7-.8-.8l-10.1-2.5c-.4-.1-.7 0-1 .3s-.4.6-.3 1zm7.7-7 1.9 7.8-7.8-1.9-1.9-7.8z"/><path d="m457.7 236.7c.1.4.4.7.8.8l10.1 2.5c.4.1.7 0 1-.3s.4-.6.3-1l-2.5-10.1c-.1-.4-.4-.7-.8-.8l-10.1-2.5c-.4-.1-.7 0-1 .3s-.4.6-.3 1zm7.8-7 1.9 7.8-7.8-1.9-1.9-7.8z"/><path d="m227.7 398.2c-.1-.4-.4-.7-.8-.8l-10.1-2.5c-.4-.1-.7 0-1 .3s-.4.6-.3 1l2.5 10.1c.1.4.4.7.8.8l10.1 2.5c.4.1.7 0 1-.3s.4-.6.3-1zm-7.8 7-1.9-7.8 7.8 1.9 1.9 7.8z"/><path d="m180.6 59.3c3-3 3-7.9 0-11-3-3-7.9-3-11 0-3 3-3 7.9 0 11 3 3 7.9 3 11 0zm-9.1-9.1c2-2 5.2-2 7.1 0 2 2 2 5.2 0 7.1-2 2-5.2 2-7.1 0-2-1.9-2-5.1 0-7.1z"/><path d="m485.8 285.3c3-3 3-7.9 0-11-3-3-7.9-3-11 0-3 3-3 7.9 0 11 3 3 7.9 3 11 0zm-9.1-9c2-2 5.2-2 7.1 0 2 2 2 5.2 0 7.1-2 2-5.2 2-7.1 0-2-2-2-5.2 0-7.1z"/><path d="m416.2 96.6c3-3 3-7.9 0-11-3-3-7.9-3-11 0-3 3-3 7.9 0 11 3.1 3.1 8 3.1 11 0zm-9-9c2-2 5.2-2 7.1 0 2 2 2 5.2 0 7.1-2 2-5.2 2-7.1 0-2-1.9-2-5.1 0-7.1z"/><path d="m9.8 171.7c.3-.3.4-.6.4-1 0-.7-.6-1.3-1.4-1.3l-8.8.3v2.7l8.9-.2c.3-.1.7-.2.9-.5z"/><path d="m286.5 209.8c-.7 0-1.3.6-1.3 1.3l-.4 14.4-14.4.4c-.7 0-1.3.6-1.3 1.3l-.4 14.4-14.4.4c-.7 0-1.3.6-1.3 1.4 0 .7.6 1.3 1.4 1.3l15.7-.4c.7 0 1.3-.6 1.3-1.3l.4-14.4 14.4-.4c.7 0 1.3-.6 1.3-1.3l.4-14.4 14.4-.4c.4 0 .7-.2.9-.4.3-.3.4-.6.4-1 0-.7-.6-1.3-1.4-1.3z"/><path d="m306 50.8 14.4.4.4 14.4c0 .7.6 1.3 1.3 1.3l14.4.4.4 14.4c0 .7.6 1.3 1.4 1.3.4 0 .7-.2.9-.4.3-.3.4-.6.4-1l-.4-15.7c0-.7-.6-1.3-1.3-1.3l-14.4-.4-.4-14.4c0-.7-.6-1.3-1.3-1.3l-14.4-.4-.4-14.3c0-.7-.6-1.3-1.4-1.3-.7 0-1.3.6-1.3 1.4l.4 15.7c0 .6.6 1.2 1.3 1.2z"/><path d="m363.8 426.6-33.8 33.8c-.8.8-1.9 1.3-3.1 1.3s-2.2-.5-3-1.3c-1.6-1.7-1.4-4.4.3-6.1l12.8-12.8c2.7-2.7 2.7-7.1 0-9.9s-7.1-2.7-9.9 0l-4.3 4.3c-1.1 1.1-2.5 1.7-4.1 1.6-1.5 0-2.9-.7-4-1.9-1.9-2.2-1.7-5.6.4-7.7l25-25c.5-.5.5-1.4 0-1.9s-1.4-.5-1.9 0l-25 25c-3.1 3.1-3.4 8.1-.5 11.4 1.5 1.7 3.6 2.7 5.9 2.8s4.5-.8 6.1-2.4l4.3-4.3c1.7-1.7 4.4-1.7 6 0s1.7 4.4 0 6l-12.8 12.8c-2.7 2.7-2.9 7.2-.3 9.9 1.3 1.4 3.1 2.2 5 2.2s3.7-.7 5-2l33.8-33.8c.5-.5.5-1.4 0-1.9-.5-.7-1.4-.7-1.9-.1z"/><path d="m143.4 324.5-33.8 33.8c-.8.8-1.9 1.3-3.1 1.3s-2.2-.5-3-1.3c-1.6-1.7-1.4-4.4.3-6.1l12.8-12.8c2.7-2.7 2.7-7.1 0-9.9s-7.1-2.7-9.8 0l-4.3 4.3c-1.1 1.1-2.5 1.7-4.1 1.6-1.5 0-2.9-.7-4-1.9-1.9-2.2-1.7-5.6.4-7.7l25-25c.5-.5.5-1.4 0-1.9s-1.4-.5-1.9 0l-25 25c-3.1 3.1-3.4 8.1-.5 11.4 1.5 1.7 3.6 2.7 5.9 2.8s4.5-.8 6.1-2.4l4.3-4.3c1.7-1.7 4.4-1.7 6 0 1.7 1.7 1.7 4.4 0 6l-12.8 12.8c-2.7 2.7-2.9 7.2-.3 9.9 1.3 1.4 3.1 2.2 5 2.2s3.7-.7 5-2l33.8-33.8c.5-.5.5-1.4 0-1.9-.6-.6-1.5-.6-2-.1z"/><path d="m232.3 52.9c2.3.1 4.5-.8 6.1-2.4l4.3-4.3c1.7-1.7 4.4-1.7 6 0s1.7 4.4 0 6l-12.7 12.8c-2.7 2.7-2.9 7.2-.3 9.9 1.3 1.4 3.1 2.2 5 2.2s3.7-.7 5-2l33.8-33.8c.5-.5.5-1.4 0-1.9s-1.4-.5-1.9 0l-33.8 33.8c-.8.8-1.9 1.3-3.1 1.2-1.2 0-2.2-.5-3-1.3-1.6-1.7-1.4-4.4.3-6.1l12.8-12.8c2.7-2.7 2.7-7.1 0-9.8s-7.1-2.7-9.9 0l-4.3 4.3c-1.1 1.1-2.5 1.7-4.1 1.6-1.5 0-2.9-.7-4-1.9-1.9-2.2-1.7-5.6.4-7.7l25-25c.5-.5.5-1.4 0-1.9s-1.4-.5-1.9 0l-25 25c-3.1 3.1-3.4 8.1-.5 11.4 1.4 1.6 3.5 2.6 5.8 2.7z"/><path d="m390.7 326.3c2.6.7 5.8 1.5 8.2-.9s1.6-5.6.9-8.2c-.7-2.7-1-4.4.2-5.6s2.9-.9 5.6-.2c2.6.7 5.8 1.5 8.2-.9.5-.5.5-1.4 0-1.9s-1.4-.5-1.9 0c-1.2 1.2-2.9.9-5.6.2-2.6-.7-5.8-1.5-8.2.9s-1.6 5.6-.9 8.2c.7 2.7 1 4.4-.2 5.6s-2.9.9-5.6.2c-2.6-.7-5.8-1.5-8.2.9s-1.5 5.6-.9 8.2c.7 2.7 1 4.4-.2 5.6s-2.9.9-5.6.2c-2.6-.7-5.8-1.5-8.2.9s-1.5 5.6-.9 8.2c.7 2.7 1 4.4-.2 5.6s-2.9.9-5.6.2c-2.6-.7-5.8-1.5-8.2.9-.5.5-.5 1.4 0 1.9s1.4.5 1.9 0c1.2-1.2 2.9-.9 5.6-.2 2.6.7 5.8 1.5 8.2-.9s1.5-5.6.9-8.2c-.7-2.7-1-4.4.2-5.6s2.9-.9 5.6-.2c2.6.7 5.8 1.5 8.2-.9s1.5-5.6.9-8.2c-.7-2.7-1-4.4.2-5.6 1.3-1.2 3-.9 5.6-.2z"/><path d="m236.4 322.6c-1.2 1.2-2.9.9-5.6.2-2.6-.7-5.8-1.5-8.2.9s-1.6 5.6-.9 8.2c.7 2.7 1 4.4-.2 5.6s-2.9.9-5.6.2c-2.6-.7-5.8-1.5-8.2.9s-1.5 5.6-.9 8.2c.7 2.7 1 4.4-.2 5.6s-2.9.9-5.6.2c-2.6-.7-5.8-1.5-8.2.9s-1.5 5.6-.9 8.2c.7 2.7 1 4.4-.2 5.6s-2.9.9-5.6.2c-2.6-.7-5.8-1.5-8.2.9-.5.5-.5 1.4 0 1.9s1.4.5 1.9 0c1.2-1.2 2.9-.9 5.6-.2 2.6.7 5.8 1.5 8.2-.9s1.5-5.6.9-8.2c-.7-2.7-1-4.4.2-5.6s2.9-.9 5.6-.2c2.6.7 5.8 1.5 8.2-.9s1.5-5.6.9-8.2c-.7-2.7-1-4.4.2-5.6s2.9-.9 5.6-.2c2.6.7 5.8 1.5 8.2-.9s1.6-5.6.9-8.2c-.7-2.7-1-4.4.2-5.6s2.9-.9 5.6-.2c2.6.7 5.8 1.5 8.2-.9.5-.5.5-1.4 0-1.9-.6-.5-1.4-.5-1.9 0z"/></g><path d="m369.8 128.1h-105.3v269.5h-29.5v-269.5h-104.8v-25.7h239.5v25.7z" fill="#fff"/></svg>