<svg height="28" preserveAspectRatio="xMinYMin meet" width="28" xmlns="http://www.w3.org/2000/svg"><path d="m18.707 17.293c.3906.3904.3906 1.0236 0 1.414-.3904.3906-1.0236.3906-1.414 0l-4.293-4.2928-4.293 4.293c-.3904.3904-1.0236.3904-1.414 0-.3906-.3906-.3906-1.0238 0-1.4143l4.2928-4.293-4.293-4.293c-.3904-.3904-.3904-1.0236 0-1.414.3906-.3906 1.0238-.3906 1.4143 0l4.293 4.2928 4.293-4.293c.3904-.3904 1.0236-.3904 1.414 0 .3906.3906.3906 1.0238 0 1.4143l-4.2928 4.293 4.293 4.293z" fill="#dadada" fill-rule="evenodd"/><circle cx="13" cy="13" fill="none" r="12" stroke="#dadada" stroke-width="2"/></svg>